<svg width="512" height="512" viewBox="0 0 512 512" fill="currentColor" xmlns="http://www.w3.org/2000/svg">
<path d="M444.17 32H67.83C48.2 32 32 48.2 32 67.83v376.34C32 463.8 48.2 480 67.83 480h376.34c19.63 0 35.83-16.2 35.83-35.83V67.83C480 48.2 463.8 32 444.17 32zM170.66 404H106V205.28h64.66V404zm-32.33-226.1c-20.67 0-37.44-16.78-37.44-37.44s16.78-37.44 37.44-37.44 37.44 16.78 37.44 37.44-16.77 37.44-37.44 37.44zM406 404h-64.38V302.5c0-24.26-.48-55.44-33.78-55.44-33.87 0-39.06 26.45-39.06 53.78V404h-64.48V205.28h61.86v27.12h.88c8.62-16.33 29.73-33.48 61.18-33.48 65.42 0 77.48 43.08 77.48 99.06V404z"></path>
</svg>
